<?xml version="1.0" standalone="no"?>
<!DOCTYPE svg PUBLIC "-//W3C//DTD SVG 20010904//EN"
 "http://www.w3.org/TR/2001/REC-SVG-20010904/DTD/svg10.dtd">
<svg version="1.0" xmlns="http://www.w3.org/2000/svg"
 width="700.000000pt" height="700.000000pt" viewBox="0 0 700.000000 700.000000"
 preserveAspectRatio="xMidYMid meet">
<metadata>
Created by potrace 1.11, written by Peter Selinger 2001-2013
</metadata>
<g transform="translate(0.000000,700.000000) scale(0.100000,-0.100000)"
fill="#000000" stroke="none">
<path d="M3274 6500 c-288 -23 -619 -99 -875 -200 -114 -46 -334 -149 -328
-154 12 -11 2902 -1387 2905 -1383 3 3 -283 1266 -341 1504 -13 53 -443 175
-770 218 -148 19 -443 27 -591 15z"/>
<path d="M4815 6179 c27 -127 696 -3023 698 -3026 2 -1 204 246 448 549 357
445 444 558 442 579 -3 45 -90 292 -149 425 -279 631 -738 1124 -1358 1459
l-88 48 7 -34z"/>
<path d="M1799 5979 c-226 -155 -472 -381 -634 -584 -249 -311 -449 -694 -556
-1065 -27 -96 -81 -341 -76 -346 1 -1 101 45 222 103 121 57 256 122 300 143
90 42 260 124 1250 597 380 182 773 370 875 418 102 49 188 91 192 94 6 5
-1388 680 -1461 709 -4 1 -54 -30 -112 -69z"/>
<path d="M3511 4734 c-24 -31 -25 -51 -9 -179 10 -83 9 -97 -5 -119 -10 -14
-17 -32 -17 -39 0 -10 -19 -17 -62 -21 -166 -19 -363 -113 -504 -239 -47 -43
-53 -45 -87 -37 -38 8 -68 32 -164 129 -48 49 -54 52 -94 49 -54 -4 -80 -39
-64 -84 10 -28 35 -49 155 -128 41 -26 66 -50 68 -63 2 -12 9 -27 17 -33 11
-9 8 -20 -17 -63 -86 -145 -129 -319 -126 -501 1 -94 -2 -121 -12 -124 -8 -3
-22 -13 -32 -22 -19 -18 -128 -40 -193 -40 -42 0 -90 -22 -99 -45 -20 -54 12
-105 65 -105 17 0 77 16 134 35 82 28 108 33 129 25 14 -5 33 -7 41 -4 8 4 15
1 15 -6 0 -22 77 -177 121 -241 53 -80 167 -194 240 -243 53 -35 56 -39 56
-79 1 -47 -11 -73 -75 -170 -51 -76 -59 -122 -27 -157 22 -25 65 -26 94 -3 13
11 38 64 61 127 40 109 54 136 73 136 5 0 15 7 21 16 11 15 18 14 79 -5 159
-49 345 -52 517 -7 81 21 97 22 106 10 6 -8 16 -14 22 -14 15 0 53 -77 82
-164 35 -108 86 -142 141 -97 38 30 31 77 -23 158 -64 97 -76 123 -75 169 0
37 4 43 42 67 62 39 169 140 223 210 45 59 152 257 152 283 0 6 20 15 45 18
37 6 64 1 149 -28 121 -42 134 -43 170 -15 42 33 31 100 -21 120 -14 5 -67 14
-118 19 -90 9 -145 25 -145 41 0 4 -8 10 -17 13 -16 5 -18 21 -19 138 -1 187
-45 356 -129 487 -25 41 -26 44 -11 76 20 41 57 73 147 126 81 47 107 86 90
132 -12 31 -51 50 -86 41 -14 -3 -63 -44 -110 -90 -51 -51 -93 -84 -106 -84
-11 0 -29 -5 -40 -11 -17 -9 -28 -3 -76 41 -77 70 -130 105 -236 155 -91 43
-235 85 -289 85 -52 0 -70 85 -47 231 8 54 8 78 -1 100 -23 55 -85 67 -119 23z
m-50 -762 c-12 -194 -20 -224 -60 -237 -11 -3 -31 -1 -43 6 -17 9 -302 205
-327 225 -14 12 99 98 185 141 69 35 118 52 194 68 46 9 56 9 58 -3 2 -8 -1
-98 -7 -200z m344 182 c74 -24 172 -78 239 -130 l59 -47 -22 -18 c-12 -10 -87
-63 -165 -119 -220 -153 -229 -149 -245 123 -15 251 -20 226 37 216 26 -5 70
-16 97 -25z m-736 -470 c139 -124 151 -138 151 -169 0 -25 -6 -39 -24 -50 -13
-9 -107 -40 -208 -69 l-183 -53 -3 86 c-2 54 3 114 14 161 16 75 80 230 94
230 4 0 76 -61 159 -136z m1189 68 c47 -102 72 -211 72 -314 l0 -90 -31 7
c-114 25 -365 106 -376 121 -33 46 -20 66 135 208 81 74 152 135 158 135 6 1
25 -30 42 -67z m-597 -252 c35 -42 38 -49 30 -80 -5 -19 -12 -46 -15 -61 -4
-19 -18 -30 -62 -48 l-56 -24 -49 23 c-41 19 -51 30 -59 59 -22 86 -23 84 21
134 41 48 42 48 97 45 51 -3 57 -6 93 -48z m-374 -292 c25 -21 12 -76 -59
-248 -39 -96 -73 -177 -75 -179 -11 -16 -162 124 -213 199 -48 71 -92 158 -87
173 4 14 361 77 397 70 14 -2 31 -9 37 -15z m781 -9 c103 -16 195 -33 205 -37
16 -6 13 -14 -21 -84 -22 -42 -63 -106 -92 -142 -60 -74 -167 -163 -180 -150
-18 20 -150 355 -150 383 0 20 8 35 22 45 12 9 24 16 26 16 2 0 87 -14 190
-31z m-465 -141 c17 -14 211 -357 205 -363 -2 -3 -33 -12 -69 -21 -88 -23
-253 -23 -346 0 -40 10 -73 19 -73 21 0 11 186 335 203 353 23 25 55 28 80 10z"/>
<path d="M1212 4133 l-702 -336 -7 -36 c-14 -69 -7 -490 10 -622 71 -538 264
-1018 577 -1433 102 -136 148 -191 153 -185 7 7 679 2940 675 2944 -2 2 -320
-147 -706 -332z"/>
<path d="M5525 2915 c-506 -630 -926 -1154 -934 -1165 -13 -20 -10 -20 663
-20 l676 0 34 47 c115 159 256 422 339 633 85 215 149 469 183 725 21 156 24
531 6 675 -21 165 -35 250 -41 250 -3 0 -420 -516 -926 -1145z"/>
<path d="M1695 2779 c-14 -40 -323 -1404 -319 -1411 14 -22 271 -239 358 -301
497 -357 1041 -545 1666 -573 132 -6 153 -5 144 7 -19 25 -1827 2274 -1835
2283 -5 6 -10 3 -14 -5z"/>
<path d="M2892 1563 c8 -10 201 -250 428 -533 227 -283 416 -518 419 -521 13
-14 287 26 461 68 431 102 881 326 1215 604 107 89 309 287 363 357 l34 42
-1468 0 c-1396 0 -1466 -1 -1452 -17z"/>
</g>
</svg>
