<?xml version="1.0" standalone="no"?>
<!DOCTYPE svg PUBLIC "-//W3C//DTD SVG 20010904//EN"
 "http://www.w3.org/TR/2001/REC-SVG-20010904/DTD/svg10.dtd">
<svg version="1.0" xmlns="http://www.w3.org/2000/svg"
 width="700.000000pt" height="700.000000pt" viewBox="0 0 700.000000 700.000000"
 preserveAspectRatio="xMidYMid meet">
<metadata>
Created by potrace 1.11, written by Peter Selinger 2001-2013
</metadata>
<g transform="translate(0.000000,700.000000) scale(0.100000,-0.100000)"
fill="#000000" stroke="none">
<path d="M403 6782 l-183 -2 0 -821 0 -821 73 -92 c39 -50 77 -98 84 -106 7
-8 71 -89 143 -180 72 -91 139 -174 148 -185 9 -11 60 -74 112 -140 80 -102
500 -629 537 -675 14 -17 286 -360 321 -404 24 -31 30 -31 37 0 3 16 128 577
182 814 8 36 16 76 19 90 3 14 36 162 74 330 37 168 80 359 95 425 15 66 28
122 30 125 2 3 6 23 10 45 4 22 8 45 9 50 12 44 16 63 20 85 2 14 11 54 20 90
8 36 17 76 20 90 4 22 50 226 91 410 73 320 95 420 100 449 3 19 8 37 10 41 2
4 7 22 10 41 3 19 15 71 25 116 11 46 22 93 24 105 2 13 9 43 15 68 5 24 9 46
7 47 -4 4 -1808 9 -2033 5z"/>
<path d="M2859 6782 l-125 -3 -14 -62 c-7 -34 -14 -64 -15 -67 0 -3 -4 -23 -9
-45 -4 -22 -16 -76 -26 -120 -11 -44 -51 -224 -90 -400 -39 -176 -87 -390
-106 -475 -19 -85 -37 -166 -40 -180 -3 -13 -14 -60 -24 -105 -10 -45 -21 -92
-24 -105 -2 -14 -16 -77 -30 -140 -15 -63 -29 -126 -31 -140 -3 -14 -11 -51
-19 -82 l-13 -56 51 23 c28 12 123 58 211 100 268 130 432 209 610 295 94 45
206 99 250 120 44 20 145 69 225 107 80 39 201 98 270 131 69 33 190 91 270
130 80 38 201 97 270 130 170 81 358 171 520 250 276 133 447 215 515 247 39
18 182 87 319 154 137 67 250 121 251 121 1 0 80 38 176 85 l174 84 -70 1
c-328 2 -3379 4 -3476 2z"/>
<path d="M6669 6586 c-58 -28 -170 -82 -250 -120 -79 -39 -232 -112 -339 -164
-107 -52 -240 -116 -295 -142 -55 -26 -181 -87 -280 -135 -99 -48 -216 -104
-260 -125 -44 -21 -159 -76 -255 -123 -96 -46 -222 -107 -280 -134 -147 -70
-331 -159 -565 -272 -110 -54 -224 -108 -252 -121 -29 -13 -53 -26 -53 -30 0
-3 84 -47 188 -98 236 -115 614 -298 847 -412 99 -48 270 -131 380 -185 110
-54 272 -132 360 -175 164 -79 420 -204 835 -407 312 -153 320 -156 325 -151
5 5 8 2839 3 2843 -2 1 -50 -21 -109 -49z"/>
<path d="M220 3300 l0 -1375 1083 2 c595 0 1086 2 1090 2 5 1 -6 20 -24 44
-50 63 -533 671 -603 758 -34 41 -72 90 -86 109 -14 18 -33 42 -44 54 -10 11
-30 37 -45 56 -14 19 -134 170 -266 335 -132 166 -253 319 -270 340 -16 21
-43 55 -60 75 -16 20 -43 54 -60 75 -35 45 -160 203 -178 225 -7 8 -127 159
-266 335 -140 176 -258 324 -262 330 -5 5 -9 -609 -9 -1365z"/>
<path d="M5115 4258 c4 -12 72 -291 80 -328 2 -8 22 -96 45 -195 23 -99 43
-187 45 -195 4 -19 79 -339 105 -445 38 -158 300 -1280 304 -1300 3 -11 14
-60 26 -110 12 -49 24 -101 27 -114 2 -14 6 -28 8 -31 2 -4 7 -21 10 -39 3
-17 12 -60 21 -94 8 -34 19 -80 24 -102 5 -22 56 -242 114 -490 59 -247 114
-483 123 -522 l17 -73 358 0 358 0 0 83 c0 45 0 773 0 1617 0 1452 -1 1536
-17 1548 -10 8 -36 22 -58 32 -22 10 -166 80 -320 155 -154 75 -329 161 -390
190 -60 29 -218 106 -350 170 -337 165 -525 255 -530 255 -2 0 -2 -6 0 -12z"/>
<path d="M5130 2634 c-30 -38 -69 -87 -86 -109 -29 -38 -380 -487 -430 -550
-13 -16 -69 -88 -125 -160 -55 -71 -131 -168 -168 -215 -74 -94 -183 -234
-591 -755 -151 -192 -319 -408 -374 -478 -56 -70 -102 -132 -104 -137 -2 -6
458 -10 1256 -10 l1260 0 -24 98 c-13 53 -41 174 -63 267 -22 94 -52 220 -66
280 -15 61 -29 121 -31 135 -3 14 -21 90 -40 170 -20 80 -37 154 -40 165 -9
44 -14 66 -49 215 -20 85 -39 164 -41 175 -2 11 -10 47 -19 80 -8 33 -37 157
-65 275 -28 118 -69 294 -91 390 -23 96 -44 188 -48 204 l-6 29 -55 -69z"/>
<path d="M220 928 l0 -708 1330 0 c1112 0 1330 2 1337 14 4 7 20 29 35 47 15
19 66 84 113 144 47 61 96 124 109 140 13 17 141 180 285 363 143 183 272 348
286 365 14 18 29 37 33 42 42 56 189 243 199 253 7 8 17 21 22 31 9 16 -97 17
-1870 17 l-1879 0 0 -708z"/>
</g>
</svg>
